<?xml version="1.0" encoding="UTF-8" standalone="no"?>
<svg width="164px" height="95px" viewBox="0 0 164 95" version="1.1" xmlns="http://www.w3.org/2000/svg" xmlns:xlink="http://www.w3.org/1999/xlink">
    <!-- Generator: Sketch 50.2 (55047) - http://www.bohemiancoding.com/sketch -->
    <title>Group 6</title>
    <desc>Created with Sketch.</desc>
    <defs></defs>
    <g id="webApp" stroke="none" stroke-width="1" fill="none" fill-rule="evenodd">
        <g id="checkIn" transform="translate(-206.000000, -129.000000)" stroke="#882EFF">
            <g id="Group-5" transform="translate(-5.000000, 2.000000)">
                <g id="Group-6" transform="translate(213.000000, 129.000000)">
                    <circle id="Oval" fill="#882EFF" cx="81" cy="34" r="3"></circle>
                    <ellipse id="Oval-4" stroke-width="3" cx="80.5" cy="45.5" rx="49.5" ry="45.5"></ellipse>
                    <ellipse id="Oval-5" stroke-width="3" cx="16" cy="15.5" rx="16" ry="15.5"></ellipse>
                    <ellipse id="Oval-5" stroke-width="3" cx="144" cy="15.5" rx="16" ry="15.5"></ellipse>
                    <path d="M45,49 C53.5350972,59.6666667 62.2011129,59.6666667 70.9980469,49" id="Path-7" stroke-width="3"></path>
                    <path d="M89,49 C97.5350972,59.6666667 106.201113,59.6666667 114.998047,49" id="Path-7" stroke-width="3" transform="translate(101.999023, 53.000000) scale(-1, 1) translate(-101.999023, -53.000000) "></path>
                    <path d="M80.0078125,71 C77.7175587,76.204516 75.7149545,78.0231587 74,76.4559279" id="Path-8" stroke-width="2"></path>
                    <path d="M87,71 C84.7127244,76.204516 82.7127244,78.0231587 81,76.4559279" id="Path-8" stroke-width="2" transform="translate(84.000000, 74.000000) scale(-1, 1) translate(-84.000000, -74.000000) "></path>
                </g>
            </g>
        </g>
    </g>
</svg>