<?xml version="1.0" encoding="UTF-8" standalone="no"?>
<svg width="618px" height="326px" viewBox="0 0 618 326" version="1.1" xmlns="http://www.w3.org/2000/svg" xmlns:xlink="http://www.w3.org/1999/xlink">
    <!-- Generator: Sketch 50.2 (55047) - http://www.bohemiancoding.com/sketch -->
    <title>Group 2</title>
    <desc>Created with Sketch.</desc>
    <defs>
        <linearGradient x1="7.63956311%" y1="16.0197806%" x2="29.641395%" y2="59.6387516%" id="linearGradient-1">
            <stop stop-color="#2E14DE" offset="0%"></stop>
            <stop stop-color="#6A03F2" offset="100%"></stop>
        </linearGradient>
        <linearGradient x1="3.15416667%" y1="1.27097445%" x2="50%" y2="100%" id="linearGradient-2">
            <stop stop-color="#745FFF" offset="0%"></stop>
            <stop stop-color="#8043FF" offset="59.8356214%"></stop>
            <stop stop-color="#882EFF" offset="100%"></stop>
        </linearGradient>
    </defs>
    <g id="webApp" stroke="none" stroke-width="1" fill="none" fill-rule="evenodd">
        <g id="Home" transform="translate(-406.000000, -274.000000)">
            <g id="Group-2" transform="translate(406.000000, 261.000000)">
                <path d="M0,339 C84.9708776,207.470595 159.800004,147.877746 224.487379,160.221453 C271.428555,169.178814 325.943449,197.323646 377.15534,169.250673 C399.605875,156.943897 402.943574,146.784594 450.308738,120.492887 C510.988197,86.8106105 615.166925,192.10207 617.294118,169.250673 C622.235294,116.170017 622.235294,172.753126 617.294118,339 L0,339 Z" id="Path-2" fill="url(#linearGradient-1)" style="mix-blend-mode: overlay;"></path>
                <path d="M146,339 C228.300697,220.995819 295.63403,167.156655 348,177.482507 C386,184.975586 461.542755,233.436336 503,209.952518 C544.457245,186.468701 614.933818,99.9561299 618,65.9188774 C622,21.5154428 622,112.542484 618,339 L146,339 Z" id="Path-2" fill="url(#linearGradient-2)"></path>
                <path d="M146,339 C228.300697,198.142897 295.63403,133.877133 348,146.20271 C386,155.146915 461.542755,212.992669 503,184.960928 C544.457245,156.929188 614.933818,53.6624227 618,13.0334487 C622,-39.9692426 622,68.6862745 618,339 L146,339 Z" id="Path-2" fill="url(#linearGradient-2)" style="mix-blend-mode: overlay;"></path>
            </g>
        </g>
    </g>
</svg>